# xmcd CD database file
# Generated: Fre Jun 6 11:24:48 2003 by KSCD
# 
# Track frame offsets:
#       150
#       13400
#       29061
#       42013
#       56463
#       66261
#       76274
#       97029
#       109962
#       128044
#       141524
#       153856
#       168667
#       180872
#       190612
#       203240
#       215170
#       231206
#
# Disc length: 3247 seconds
#
# Revision: 3
# Processed by: cddbd v1.4PL0 Copyright (c) Steve Scherf et al.
# Submitted via: Kscd 1.3.3
#
DISCID=020cad12
DTITLE=Tammy Wyneette - Pure Country
DYEAR=1900
DGENRE=
TTITLE0=d.i.v.o.r.c.e.
TTITLE1=
TTITLE2=
TTITLE3=
TTITLE4=
TTITLE5=
TTITLE6=
TTITLE7=
TTITLE8=
TTITLE9=
TTITLE10=
TTITLE11=
TTITLE12=
TTITLE13=
TTITLE14=
TTITLE15=
TTITLE16=
TTITLE17=
EXTD=
EXTT0=
EXTT1=
EXTT2=
EXTT3=
EXTT4=
EXTT5=
EXTT6=
EXTT7=
EXTT8=
EXTT9=
EXTT10=
EXTT11=
EXTT12=
EXTT13=
EXTT14=
EXTT15=
EXTT16=
EXTT17=
PLAYORDER=
